<svg xmlns="http://www.w3.org/2000/svg" version="1.0" preserveAspectRatio="xMidYMid meet" viewBox="56 77.99 316.85 35.74">
<metadata>
Created by potrace 1.10, written by Peter Selinger 2001-2011
</metadata>
<g transform="translate(0.000000,270.000000) scale(0.100000,-0.100000)" fill="#000000" stroke="none">
<path d="M626 1905 c-3 -8 -15 -15 -26 -15 -30 0 -24 -17 8 -23 15 -3 27 -5 28 -4 1 1 4 14 8 30 7 28 -8 38 -18 12z"/>
<path d="M680 1871 c0 -5 7 -12 16 -15 8 -3 12 -11 8 -18 -5 -8 0 -9 17 -5 13 4 27 7 32 7 4 0 7 5 7 11 0 6 -9 9 -20 6 -10 -3 -24 1 -31 9 -13 16 -29 19 -29 5z"/>
<path d="M1247 1738 l2 -113 70 -3 71 -3 0 32 c0 32 0 32 -45 27 -39 -5 -45 -3 -45 13 0 14 7 19 30 19 25 0 30 4 30 25 0 21 -5 25 -30 25 -23 0 -30 4 -30 20 0 17 7 20 45 20 41 0 45 2 45 25 0 24 -2 25 -72 25 l-73 0 2 -112z"/>
<path d="M1440 1844 c0 -4 14 -29 30 -56 l31 -49 -31 -53 c-36 -64 -36 -66 -7 -66 17 0 28 10 41 37 l18 37 21 -37 c15 -26 28 -37 44 -37 29 0 29 2 -7 65 l-30 53 30 52 c16 28 30 53 30 55 0 3 -11 5 -25 5 -18 0 -29 -9 -43 -35 l-18 -36 -17 36 c-13 26 -23 35 -42 35 -14 0 -25 -3 -25 -6z"/>
<path d="M1686 1753 c-15 -54 -30 -106 -32 -115 -8 -27 43 -24 51 2 4 14 15 20 35 20 19 0 29 -6 33 -20 3 -14 14 -20 32 -20 19 0 26 4 22 14 -3 8 -18 60 -34 115 -26 95 -29 101 -53 101 -25 0 -28 -7 -54 -97z m64 39 c0 -10 -7 -19 -15 -19 -17 0 -17 0 -9 21 8 22 24 20 24 -2z m0 -75 c0 -10 -5 -17 -11 -15 -6 2 -10 7 -10 11 1 4 1 17 1 30 0 18 2 19 10 7 5 -8 10 -23 10 -33z"/>
<path d="M1883 1843 c-18 -6 -18 -194 -1 -211 7 -7 36 -12 64 -12 43 0 56 4 68 22 26 37 21 58 -14 58 -19 0 -30 -5 -30 -14 0 -8 -10 -13 -25 -13 -24 0 -25 2 -25 63 l0 64 30 0 c22 0 28 -4 24 -15 -5 -11 1 -15 25 -15 26 0 31 4 31 24 0 40 -25 56 -83 55 -29 0 -58 -3 -64 -6z"/>
<path d="M2070 1825 c0 -21 5 -25 30 -25 l30 0 0 -90 c0 -89 0 -90 25 -90 25 0 25 1 25 90 l0 90 28 0 c22 0 27 4 27 25 0 25 -1 25 -82 25 -82 0 -83 0 -83 -25z m90 -15 c0 -5 -2 -10 -4 -10 -3 0 -8 5 -11 10 -3 6 -1 10 4 10 6 0 11 -4 11 -10z"/>
<path d="M2283 1833 c3 -10 13 -62 24 -115 17 -95 19 -98 44 -98 25 0 28 5 40 65 7 35 16 62 20 60 4 -3 10 -27 14 -53 8 -61 17 -75 45 -70 21 3 25 13 45 116 l22 112 -28 0 c-26 0 -28 -3 -34 -55 -7 -54 -25 -77 -25 -31 0 13 -3 38 -6 55 -5 26 -11 31 -34 31 -26 0 -29 -5 -42 -57 l-15 -58 -9 55 c-8 50 -11 55 -37 58 -24 3 -28 0 -24 -15z m141 -45 c9 -35 7 -41 -7 -29 -8 6 -17 8 -20 4 -9 -8 -9 10 -1 31 9 23 21 20 28 -6z m-54 -78 c0 -18 -17 -47 -23 -40 -2 3 -7 16 -10 30 -5 21 -3 26 13 26 11 0 20 -7 20 -16z m109 0 c0 -8 -4 -24 -8 -34 -7 -18 -9 -16 -19 14 -15 42 -16 39 8 37 11 -1 20 -8 19 -17z"/>
<path d="M2580 1735 l0 -115 75 0 75 0 0 31 c0 31 0 31 -47 27 -39 -2 -48 0 -51 15 -3 14 4 17 32 17 32 0 36 3 36 25 0 22 -4 25 -35 25 -28 0 -35 4 -35 20 0 17 7 20 50 20 47 0 50 2 50 25 0 24 -2 25 -75 25 l-75 0 0 -115z m50 6 c0 -6 -4 -13 -10 -16 -5 -3 -10 1 -10 9 0 9 5 16 10 16 6 0 10 -4 10 -9z"/>
<path d="M2825 1838 c-2 -7 -17 -59 -33 -115 l-29 -103 27 0 c19 0 29 6 33 20 3 14 14 20 32 20 18 0 29 -6 32 -20 3 -13 14 -20 29 -20 28 0 28 1 10 66 -8 27 -21 75 -30 107 -15 50 -20 57 -42 57 -13 0 -27 -6 -29 -12z m45 -52 c0 -7 -7 -13 -15 -13 -15 0 -20 18 -9 30 9 9 24 -2 24 -17z m-1 -77 c1 -3 -6 -6 -14 -6 -17 0 -18 7 -8 33 6 16 7 16 14 -2 4 -10 8 -22 8 -25z m-39 -18 c0 -6 -4 -13 -10 -16 -5 -3 -10 1 -10 9 0 9 5 16 10 16 6 0 10 -4 10 -9z m70 -7 c0 -8 -4 -12 -10 -9 -5 3 -10 10 -10 16 0 5 5 9 10 9 6 0 10 -7 10 -16z"/>
<path d="M2960 1825 c0 -21 5 -25 28 -25 l27 0 -3 -90 -4 -90 32 0 32 0 -4 90 -3 90 28 0 c22 0 27 4 27 25 0 25 -1 25 -80 25 -79 0 -80 0 -80 -25z m90 -15 c0 -5 -2 -10 -4 -10 -3 0 -8 5 -11 10 -3 6 -1 10 4 10 6 0 11 -4 11 -10z"/>
<path d="M3170 1735 l0 -115 25 0 c23 0 25 4 25 45 0 44 1 45 31 45 30 0 30 -1 27 -42 -3 -40 -1 -43 25 -46 l27 -3 0 115 0 116 -28 0 c-26 0 -27 -2 -24 -45 4 -44 4 -45 -27 -45 -30 0 -31 1 -31 45 0 41 -2 45 -25 45 l-25 0 0 -115z m127 0 c0 -8 -4 -12 -9 -9 -5 3 -6 10 -3 15 9 13 12 11 12 -6z"/>
<path d="M3370 1735 l0 -115 75 0 75 0 0 31 c0 30 0 31 -47 27 -38 -2 -46 0 -49 15 -2 13 5 17 32 17 30 0 34 3 34 25 0 21 -5 25 -29 25 -20 0 -30 6 -34 20 -5 18 0 20 44 20 46 0 49 2 49 25 0 24 -2 25 -75 25 l-75 0 0 -115z"/>
<path d="M3560 1735 l0 -115 31 0 c28 0 30 2 27 32 -4 44 18 47 39 4 13 -29 22 -36 45 -36 28 0 28 0 13 30 -14 27 -14 32 0 54 17 25 18 98 3 129 -7 14 -22 17 -83 17 l-75 0 0 -115z m108 33 c-2 -27 -7 -33 -27 -32 -19 0 -24 5 -26 32 -2 29 0 32 27 32 27 0 29 -3 26 -32z m17 -67 c-3 -6 -11 -8 -17 -5 -6 4 -5 9 3 15 16 10 23 4 14 -10z"/>
<path d="M754 1808 c-17 -14 -38 -21 -56 -19 -15 1 -28 -2 -28 -8 0 -7 30 -11 81 -11 55 0 78 3 73 11 -4 7 -20 8 -42 4 -31 -6 -34 -5 -23 8 20 24 58 29 93 11 27 -14 29 -18 15 -26 -24 -13 -22 -49 3 -55 26 -7 25 -15 -5 -43 -27 -25 -27 -25 -44 8 -6 12 -20 22 -31 22 -10 0 -28 12 -41 28 -14 17 -23 22 -26 15 -3 -7 -13 -13 -23 -13 -10 0 -22 -4 -25 -10 -3 -5 -14 -10 -24 -10 -21 0 -58 -26 -49 -35 6 -6 12 -4 75 29 42 22 60 20 78 -8 11 -16 22 -22 35 -19 24 6 26 -9 4 -43 -16 -23 -21 -24 -86 -20 -76 5 -121 26 -55 26 20 0 37 5 37 10 0 6 -28 10 -65 10 -37 0 -65 -4 -65 -10 0 -5 8 -10 18 -10 10 0 25 -9 35 -20 9 -11 25 -21 34 -21 107 -9 134 -6 146 12 6 10 18 19 25 19 24 0 71 30 77 49 5 16 13 18 43 14 22 -3 51 1 72 10 41 18 15 23 -39 7 -25 -7 -39 -6 -49 3 -8 6 -22 12 -31 12 -8 0 -17 8 -19 18 -2 10 3 17 12 17 9 0 16 5 16 10 0 6 11 10 25 10 14 0 25 -5 25 -11 0 -8 4 -8 15 1 11 9 19 8 37 -4 l22 -16 -27 0 c-15 0 -27 -4 -27 -8 0 -4 25 -8 55 -8 30 -1 55 3 55 7 0 5 -9 9 -20 9 -11 0 -20 4 -20 8 0 18 -58 39 -105 37 -27 0 -59 5 -70 12 -30 20 -79 16 -111 -9z"/>
<path d="M906 1650 c-91 -33 -80 -76 21 -85 54 -5 65 -3 83 15 23 23 23 55 0 55 -8 0 -21 8 -28 18 -15 20 -12 20 -76 -3z m70 -15 c4 -8 12 -15 20 -15 20 0 17 -14 -5 -34 -13 -11 -25 -15 -33 -9 -13 8 -17 9 -70 12 -31 1 -40 31 -10 31 9 0 28 7 42 14 34 19 49 19 56 1z"/>
</g>
</svg>