<svg xmlns="http://www.w3.org/2000/svg" version="1.1" viewBox="0 0 610 270">
<path d="M0 0 C201.3 0 402.6 0 610 0 C610 89.1 610 178.2 610 270 C408.7 270 207.4 270 0 270 C0 180.9 0 91.8 0 0 Z " fill="#F6F6F6" transform="translate(0,0)"/>
<path d="M0 0 C0.825 0.515625 1.65 1.03125 2.5 1.5625 C5.97000744 3.36681024 5.97000744 3.36681024 9.73828125 2.2421875 C13.33713123 1.70422362 14.95897748 2.232568 17.88671875 4.37890625 C19.17141498 5.41852197 20.43827245 6.48052228 21.6875 7.5625 C25.15414607 10.54947757 25.15414607 10.54947757 29 13 C31.68683697 12.76093355 31.68683697 12.76093355 34 11 C35.00417969 10.35804687 36.00835937 9.71609375 37.04296875 9.0546875 C38.08066406 8.33539063 39.11835938 7.61609375 40.1875 6.875 C45.77935943 3 45.77935943 3 48 3 C49.55078125 5.16015625 49.55078125 5.16015625 51.3125 8.0625 C53.42157775 11.48644213 55.54207802 14.83210236 57.9375 18.0625 C60 21 60 21 60 23 C60.78375 22.175 61.5675 21.35 62.375 20.5 C65 18 65 18 67 18 C68.18920898 19.40527344 68.18920898 19.40527344 69.49609375 21.359375 C69.97240234 22.06320313 70.44871094 22.76703125 70.93945312 23.4921875 C71.43380859 24.23726562 71.92816406 24.98234375 72.4375 25.75 C73.41468655 27.20358104 74.39253208 28.65671934 75.37109375 30.109375 C75.82726074 30.79193359 76.28342773 31.47449219 76.75341797 32.17773438 C77.73718338 33.61581213 78.78215871 35.01201085 79.84765625 36.390625 C81 38 81 38 81 40 C77.24563593 38.34446115 74.14785311 35.94877088 70.9375 33.4375 C70.36821777 32.99494873 69.79893555 32.55239746 69.21240234 32.09643555 C53.42504496 19.77614872 53.42504496 19.77614872 47.33984375 13.21484375 C46.05449333 11.77609843 46.05449333 11.77609843 44 12 C42.68 17.28 41.36 22.56 40 28 C37.03 28.66 34.06 29.32 31 30 C30.67 32.31 30.34 34.62 30 37 C24 39 18 41 12 43 C16.58033434 34.15521644 22.29538241 26.14231758 28 18 C27.33742188 17.76410156 26.67484375 17.52820313 25.9921875 17.28515625 C21.45001901 15.3342771 17.28583145 12.74257684 13.05859375 10.18945312 C8.61773426 7.60529584 5.13585721 6.38217214 0 6 C-1.40264132 8.12076923 -2.79791592 10.24568844 -4.1875 12.375 C-4.60314209 13.00752686 -5.01878418 13.64005371 -5.44702148 14.29174805 C-7.86393206 18.03032535 -9.8303151 21.6970676 -11.5625 25.8125 C-13.39660852 29.75841657 -13.39660852 29.75841657 -16.078125 30.83203125 C-18.3125 31.125 -18.3125 31.125 -22 31 C-22.66 34.63 -23.32 38.26 -24 42 C-27.55566105 42.71113221 -30.52347325 43.16358474 -34.08203125 43.31640625 C-35.01337891 43.35830078 -35.94472656 43.40019531 -36.90429688 43.44335938 C-37.86400391 43.48267578 -38.82371094 43.52199219 -39.8125 43.5625 C-40.79154297 43.60568359 -41.77058594 43.64886719 -42.77929688 43.69335938 C-45.18607027 43.7990226 -47.59293983 43.90112327 -50 44 C-49.40251953 43.31055298 -49.40251953 43.31055298 -48.79296875 42.60717773 C-45.4729724 38.76138609 -45.4729724 38.76138609 -42.3125 34.78515625 C-41.879375 34.21667969 -41.44625 33.64820313 -41 33.0625 C-40.566875 32.47597656 -40.13375 31.88945313 -39.6875 31.28515625 C-38 30 -38 30 -35.12744141 30.18432617 C-31.9463518 30.32066873 -31.9463518 30.32066873 -30.00537109 28.22753906 C-29.43383301 27.41510742 -28.86229492 26.60267578 -28.2734375 25.765625 C-27.314375 24.43917969 -27.314375 24.43917969 -26.3359375 23.0859375 C-25.68882812 22.15007812 -25.04171875 21.21421875 -24.375 20.25 C-23.07296994 18.41998137 -21.76836619 16.59179058 -20.4609375 14.765625 C-19.60701416 13.54020996 -19.60701416 13.54020996 -18.73583984 12.29003906 C-16.98428077 9.97926211 -15.09541604 7.99962232 -13 6 C-10.36 6.99 -7.72 7.98 -5 9 C-4.731875 8.2575 -4.46375 7.515 -4.1875 6.75 C-3.05770579 4.13363446 -1.79106798 2.19812889 0 0 Z " fill="#1B1B1B" transform="translate(290,88)"/>
<path d="M0 0 C2.64 0 5.28 0 8 0 C9.98 5.94 11.96 11.88 14 18 C15.98 12.06 17.96 6.12 20 0 C22.64 0 25.28 0 28 0 C27.84402344 0.56847656 27.68804687 1.13695312 27.52734375 1.72265625 C26.21736931 6.91917736 25.88386169 10.75414995 27 16 C29.10850329 12.83724506 30.28830876 9.86528462 31.625 6.3125 C32.29402344 4.54326172 32.29402344 4.54326172 32.9765625 2.73828125 C33.31429687 1.83464844 33.65203125 0.93101562 34 0 C36.64 0 39.28 0 42 0 C41.34695118 3.89017121 40.19461184 7.30443912 38.71484375 10.95703125 C38.26689453 12.06884766 37.81894531 13.18066406 37.35742188 14.32617188 C36.88884766 15.47666016 36.42027344 16.62714844 35.9375 17.8125 C35.46505859 18.98232422 34.99261719 20.15214844 34.50585938 21.35742188 C33.34111284 24.23987543 32.17236766 27.12063965 31 30 C28.69 30 26.38 30 24 30 C22.515 26.535 22.515 26.535 21 23 C19.68 25.31 18.36 27.62 17 30 C15.02 30 13.04 30 11 30 C9.31904083 26.0058625 7.65576692 22.00464558 6 18 C5.72752441 17.34257812 5.45504883 16.68515625 5.17431641 16.0078125 C4.33946394 13.98674357 3.51256134 11.96258314 2.6875 9.9375 C2.42114746 9.29482178 2.15479492 8.65214355 1.88037109 7.98999023 C0.73260576 5.15373624 0 3.0924728 0 0 Z " fill="#171717" transform="translate(216,160)"/>
<path d="M0 0 C1.65 0 3.3 0 5 0 C5.66 0.99 6.32 1.98 7 3 C7.37125 2.505 7.7425 2.01 8.125 1.5 C10 0 10 0 12.875 -0.375 C16.31099136 0.03731896 18.19780697 1.02198139 21 3 C21.474375 2.484375 21.94875 1.96875 22.4375 1.4375 C25.78518997 -0.44047242 28.03580605 -0.16028008 31.78125 0.08984375 C35.37206896 1.56283815 36.31557193 3.55147497 38 7 C38.45566628 10.31319227 38.38062878 13.53894195 38.25 16.875 C38.23195313 17.75414062 38.21390625 18.63328125 38.1953125 19.5390625 C38.14848379 21.6931832 38.07674994 23.84673774 38 26 C35.36 26 32.72 26 30 26 C30 20.06 30 14.12 30 8 C28.35 8 26.7 8 25 8 C22.95649549 10.04350451 23.63104366 14.175281 23.5 17 C23.13513514 24.86486486 23.13513514 24.86486486 22 26 C19.69 26 17.38 26 15 26 C14.67 20.39 14.34 14.78 14 9 C11.525 8.01 11.525 8.01 9 7 C7.76240177 10.71279469 7.64391103 14.31306346 7.4375 18.1875 C7.39431641 18.93708984 7.35113281 19.68667969 7.30664062 20.45898438 C7.20077315 22.30578375 7.0999024 24.15286834 7 26 C4.69 26 2.38 26 0 26 C0 17.42 0 8.84 0 0 Z " fill="#181818" transform="translate(483,164)"/>
<path d="M0 0 C2.375 1.5 2.375 1.5 4 3 C4.66 2.01 5.32 1.02 6 0 C8.5625 -0.25 8.5625 -0.25 11 0 C12.71567792 1.71567792 12.13015825 3.97372735 12.1328125 6.3125 C12.13474609 7.92511719 12.13474609 7.92511719 12.13671875 9.5703125 C12.13285156 10.70210937 12.12898438 11.83390625 12.125 13 C12.13080078 14.69769531 12.13080078 14.69769531 12.13671875 16.4296875 C12.13542969 17.50476563 12.13414062 18.57984375 12.1328125 19.6875 C12.13168457 20.68136719 12.13055664 21.67523438 12.12939453 22.69921875 C12 25 12 25 11 26 C8.0625 26.1875 8.0625 26.1875 5 26 C4.34 25.34 3.68 24.68 3 24 C2.34 24.66 1.68 25.32 1 26 C-3.47973713 26.75689075 -7.01771448 26.58519138 -10.9375 24.25 C-14.91944881 19.90605585 -15.49740755 16.24940914 -15.38671875 10.4765625 C-14.74655237 6.37691116 -13.0470353 4.77003209 -10 2 C-6.75334533 -0.30407751 -3.92505426 -0.40885982 0 0 Z " fill="#191919" transform="translate(302,164)"/>
<path d="M0 0 C2.4375 1.5 2.4375 1.5 4 3 C4.66 2.01 5.32 1.02 6 0 C7.65 0 9.3 0 11 0 C11 8.58 11 17.16 11 26 C9.02 26 7.04 26 5 26 C4.34 25.34 3.68 24.68 3 24 C2.34 24.66 1.68 25.32 1 26 C-2.716267 26.70609073 -6.4383408 26.79562426 -9.85546875 25.0546875 C-13.11201027 22.49769934 -15.17316683 20.04229549 -16 16 C-16.14375987 11.07622443 -15.77452294 7.95796259 -12.625 4.0625 C-8.07434875 0.4869883 -5.83146444 -0.51153197 0 0 Z " fill="#181818" transform="translate(159,164)"/>
<path d="M0 0 C4.79617474 2.35284044 7.7158696 5.15764356 10 10 C10.33370126 14.6067052 9.61287257 18.00672376 7.1875 21.9375 C2.91673411 25.96422213 -0.78774412 26.50124865 -6.5234375 26.3828125 C-10.66288025 25.74296173 -12.23117794 24.11492481 -15 21 C-17.28466838 17.05375462 -17.47409741 13.50392543 -17 9 C-12.83713351 1.26896223 -8.66704746 -1.34150822 0 0 Z " fill="#1A1A1A" transform="translate(469,164)"/>
<path d="M0 0 C2.64 0 5.28 0 8 0 C8.33 2.64 8.66 5.28 9 8 C9.33 7.67 9.66 7.34 10 7 C16.97144389 6.18666488 16.97144389 6.18666488 19.60546875 8.26953125 C23.8885542 13.43184245 24.15671487 17.08738111 24.125 23.5625 C24.13080078 24.75262695 24.13080078 24.75262695 24.13671875 25.96679688 C24.12663067 31.87336933 24.12663067 31.87336933 23 33 C20.69 33 18.38 33 16 33 C15.67 27.39 15.34 21.78 15 16 C13.35 15.67 11.7 15.34 10 15 C7.95649549 17.04350451 8.63104366 21.175281 8.5 24 C8.13513514 31.86486486 8.13513514 31.86486486 7 33 C4.69 33 2.38 33 0 33 C0 22.11 0 11.22 0 0 Z " fill="#1A1A1A" transform="translate(336,157)"/>
<path d="M0 0 C7.26 0 14.52 0 22 0 C22 2.31 22 4.62 22 7 C17.38 7 12.76 7 8 7 C8 8.65 8 10.3 8 12 C11.63 12 15.26 12 19 12 C19 13.98 19 15.96 19 18 C15.37 18 11.74 18 8 18 C8 19.65 8 21.3 8 23 C12.62 23 17.24 23 22 23 C22 25.31 22 27.62 22 30 C14.74 30 7.48 30 0 30 C0 20.1 0 10.2 0 0 Z " fill="#131313" transform="translate(92,160)"/>
<path d="M0 0 C4.36859523 2.22551078 7.05621805 4.46450877 9 9 C9 10.98 9 12.96 9 15 C3.06 15 -2.88 15 -9 15 C-9 15.99 -9 16.98 -9 18 C-3.57356066 18.91172947 -3.57356066 18.91172947 1.8125 18.375 C2.534375 18.25125 3.25625 18.1275 4 18 C5.8125 19.3125 5.8125 19.3125 7 21 C7 21.66 7 22.32 7 23 C3.19207929 26.30019795 -0.63760053 26.6193547 -5.48828125 26.49609375 C-9.68142789 25.66789838 -12.29112671 23.19763024 -15 20 C-16.84467846 16.31064308 -16.35009552 12.03564658 -16 8 C-14.69078973 4.76142722 -13.47966387 3.39743578 -10.8125 1.1875 C-7.13998514 -0.36311739 -3.88989939 -0.68645283 0 0 Z " fill="#171717" transform="translate(380,164)"/>
<path d="M0 0 C3.3792573 2.03005291 6.22397384 4.44794768 8 8 C8 10.31 8 12.62 8 15 C2.06 15 -3.88 15 -10 15 C-9.01 16.32 -8.02 17.64 -7 19 C-3.16513771 19.41683286 0.26185284 18.87956404 4 18 C4.66 19.65 5.32 21.3 6 23 C1.98273896 26.21380883 -1.58468578 26.57012859 -6.55859375 26.421875 C-10.61626006 25.72071026 -12.24739574 24.02786468 -15 21 C-17.50092052 16.77101287 -17.95346213 12.80771157 -17 8 C-12.83306392 1.11049526 -7.99209118 -1.42110594 0 0 Z " fill="#161616" transform="translate(275,164)"/>
<path d="M0 0 C7.10993658 -0.7230444 7.10993658 -0.7230444 9.64453125 1.3359375 C11 3 11 3 13 6 C13.495 5.01 13.99 4.02 14.5 3 C17 0 17 0 19.046875 -0.3984375 C21.25 -0.375 21.25 -0.375 25 0 C23.35821735 4.77609498 20.73453298 8.79382904 18 13 C18.5053125 13.68707031 19.010625 14.37414062 19.53125 15.08203125 C20.1809375 15.98308594 20.830625 16.88414062 21.5 17.8125 C22.1496875 18.70582031 22.799375 19.59914062 23.46875 20.51953125 C25 23 25 23 25 26 C19.71502591 26.52849741 19.71502591 26.52849741 17 26 C14.5 23 14.5 23 13 20 C12.525625 20.99 12.05125 21.98 11.5625 23 C9 26 9 26 6.73046875 26.3984375 C4.46128006 26.37699635 2.25372556 26.26004526 0 26 C1.36031932 21.91904203 3.38130412 19.03069103 6.07421875 15.74609375 C7.18084245 14.03905492 7.18084245 14.03905492 6.8359375 12.04296875 C5.85064784 9.63499449 4.566552 7.90072424 2.9375 5.875 C0 2.21176471 0 2.21176471 0 0 Z " fill="#1A1A1A" transform="translate(117,164)"/>
<path d="M0 0 C1.28583984 0.00580078 1.28583984 0.00580078 2.59765625 0.01171875 C4.9375 0.3125 4.9375 0.3125 7.9375 2.3125 C7.6075 4.2925 7.2775 6.2725 6.9375 8.3125 C6.23882812 8.27769531 5.54015625 8.24289063 4.8203125 8.20703125 C3.91023438 8.17996094 3.00015625 8.15289062 2.0625 8.125 C1.15757812 8.09019531 0.25265625 8.05539063 -0.6796875 8.01953125 C-1.46601563 8.11621094 -2.25234375 8.21289062 -3.0625 8.3125 C-5.21165785 11.53623677 -5.44536803 12.57953674 -5.0625 16.3125 C-3.29104508 18.54267453 -3.29104508 18.54267453 -1.00390625 18.3671875 C-0.21886719 18.30789062 0.56617188 18.24859375 1.375 18.1875 C5.6782364 18.07680582 5.6782364 18.07680582 8 20.1875 C8.9375 22.3125 8.9375 22.3125 8.9375 24.3125 C4.37618921 26.92947324 0.08378288 27.10798221 -5.0625 26.3125 C-8.47960451 24.62486879 -10.52519174 22.24057791 -12.4375 18.9375 C-13.61736736 13.9820571 -13.76400652 10.61529782 -11.3125 6.0625 C-7.8427418 1.82168442 -5.58992126 -0.1096063 0 0 Z " fill="#191919" transform="translate(441.0625,163.6875)"/>
<path d="M0 0 C0.77085937 -0.01417969 1.54171875 -0.02835938 2.3359375 -0.04296875 C4.84334888 0.20948393 6.45761902 0.93556533 8.625 2.1875 C8.295 3.8375 7.965 5.4875 7.625 7.1875 C5.09239788 7.96676219 3.18421323 8.17868426 0.5 8.125 C-2.50739112 7.85884345 -2.50739112 7.85884345 -4.375 10.1875 C-4.66102162 14.33259433 -4.66102162 14.33259433 -3.375 18.1875 C-2.67632812 18.15269531 -1.97765625 18.11789063 -1.2578125 18.08203125 C-0.34773437 18.05496094 0.56234375 18.02789062 1.5 18 C2.40492188 17.96519531 3.30984375 17.93039063 4.2421875 17.89453125 C5.42167969 18.03955078 5.42167969 18.03955078 6.625 18.1875 C8.625 21.1875 8.625 21.1875 8.4375 23.3125 C8.169375 23.93125 7.90125 24.55 7.625 25.1875 C3.28616646 26.63377785 -0.84063287 26.71626805 -5.375 26.1875 C-9.03916919 24.05006797 -10.757909 22.04203155 -12.375 18.1875 C-13.12392176 13.88840104 -13.35572396 9.86014576 -11.1015625 6.015625 C-7.65463718 1.94657169 -5.430073 0.04510027 0 0 Z " fill="#181818" transform="translate(187.375,163.8125)"/>
<path d="M0 0 C0 2.64 0 5.28 0 8 C1.65 8.33 3.3 8.66 5 9 C5 10.98 5 12.96 5 15 C3.35 15 1.7 15 0 15 C0.01160156 16.21558594 0.02320313 17.43117187 0.03515625 18.68359375 C0.04453278 20.26822764 0.05363313 21.85286318 0.0625 23.4375 C0.07087891 24.23994141 0.07925781 25.04238281 0.08789062 25.86914062 C0.0965143 27.91295221 0.0522815 29.95683902 0 32 C-0.495 32.495 -0.495 32.495 -1 33 C-3.31 33 -5.62 33 -8 33 C-8 27.06 -8 21.12 -8 15 C-8.99 15 -9.98 15 -11 15 C-11 13.02 -11 11.04 -11 9 C-10.01 8.67 -9.02 8.34 -8 8 C-8 6.02 -8 4.04 -8 2 C-5.09399739 0.74335022 -3.20395416 0 0 0 Z " fill="#181818" transform="translate(328,157)"/>
<path d="M0 0 C0 2.31 0 4.62 0 7 C1.65 7.33 3.3 7.66 5 8 C5 9.65 5 11.3 5 13 C3.35 13.33 1.7 13.66 0 14 C0.01160156 15.21558594 0.02320313 16.43117187 0.03515625 17.68359375 C0.04453278 19.26822764 0.05363313 20.85286318 0.0625 22.4375 C0.07087891 23.23994141 0.07925781 24.04238281 0.08789062 24.86914062 C0.0965143 26.91295221 0.0522815 28.95683902 0 31 C-0.495 31.495 -0.495 31.495 -1 32 C-3.31 32 -5.62 32 -8 32 C-8 26.06 -8 20.12 -8 14 C-8.99 14 -9.98 14 -11 14 C-11 11.69 -11 9.38 -11 7 C-10.01 7 -9.02 7 -8 7 C-8 5.02 -8 3.04 -8 1 C-3.375 -1.125 -3.375 -1.125 0 0 Z " fill="#1A1A1A" transform="translate(210,158)"/>
<path d="M0 0 C1.671549 0.30791692 3.33805547 0.64386903 5 1 C5.99 1 6.98 1 8 1 C8.33 0.67 8.66 0.34 9 0 C12.47256915 -0.30867281 14.3872288 -0.38701339 17.375 1.5 C17.91125 1.995 18.4475 2.49 19 3 C18.67 4.32 18.34 5.64 18 7 C14.91600325 7.91377681 12.20134157 8 9 8 C6.95649549 10.04350451 7.63104366 14.175281 7.5 17 C7.13513514 24.86486486 7.13513514 24.86486486 6 26 C3.66702567 26.04092937 1.33294775 26.04241723 -1 26 C-1.02886751 21.85418113 -1.04675327 17.70838784 -1.0625 13.5625 C-1.07087891 12.37849609 -1.07925781 11.19449219 -1.08789062 9.97460938 C-1.09111328 8.84990234 -1.09433594 7.72519531 -1.09765625 6.56640625 C-1.10289307 5.52427979 -1.10812988 4.48215332 -1.11352539 3.40844727 C-1 1 -1 1 0 0 Z " fill="#191919" transform="translate(394,164)"/>
<path d="M0 0 C2.35210784 2.11689705 2.91810953 3.44041515 3.375 6.5625 C3 9 3 9 1.9375 10.8125 C-1.08503156 12.66501934 -3.54932719 12.37643703 -7 12 C-9.31282587 8.53076119 -9.42478586 7.07794425 -9 3 C-6.79848461 -0.66919231 -4.00961374 -0.58473534 0 0 Z " fill="#F0F0F0" transform="translate(303,171)"/>
<path d="M0 0 C3.62953365 -0.55232034 5.3604842 -0.42634387 8.4375 1.625 C10 4 10 4 9.875 7.125 C9 10 9 10 7 12 C3.5 12.25 3.5 12.25 0 12 C-2 10 -2 10 -2.25 6.5625 C-2 3 -2 3 0 0 Z " fill="#EEEEEE" transform="translate(153,171)"/>
<path d="M0 0 C3.1305429 -0.39964378 5.13083761 -0.52149743 7.875 1.125 C9.51151479 3.85252465 9.32502803 5.87973093 9 9 C8.01 10.485 8.01 10.485 7 12 C3.5 12.3125 3.5 12.3125 0 12 C-2 10 -2 10 -2.25 6.5625 C-2 3 -2 3 0 0 Z " fill="#F0F0F0" transform="translate(462,171)"/>
<path d="M0 0 C5.28 0 10.56 0 16 0 C15.01 0.33 14.02 0.66 13 1 C13 1.66 13 2.32 13 3 C9.51256514 4.59425594 6.84302321 5.40452876 3 5 C2.01 4.34 1.02 3.68 0 3 C0 2.01 0 1.02 0 0 Z " fill="#CDCDCD" transform="translate(371,179)"/>
<path d="M0 0 C5.61 0 11.22 0 17 0 C17 0.33 17 0.66 17 1 C15.8553125 1.1546875 15.8553125 1.1546875 14.6875 1.3125 C11.97020993 1.74744765 11.97020993 1.74744765 10.5625 3.5625 C9 5 9 5 6 5.375 C3 5 3 5 1.125 3.625 C0 2 0 2 0 0 Z " fill="#CBCBCB" transform="translate(265,179)"/>
<path d="M0 0 C2.31 0 4.62 0 7 0 C7 2.31 7 4.62 7 7 C4.69 7 2.38 7 0 7 C0 4.69 0 2.38 0 0 Z " fill="#202020" transform="translate(417,183)"/>
<path d="M0 0 C2.3125 -0.25 2.3125 -0.25 5 0 C5.99 1.32 6.98 2.64 8 4 C4.7 4 1.4 4 -2 4 C-1.34 2.68 -0.68 1.36 0 0 Z " fill="#D5D5D5" transform="translate(268,170)"/>
<path d="M0 0 C1.65 0 3.3 0 5 0 C5.66 1.32 6.32 2.64 7 4 C4.03 4 1.06 4 -2 4 C-1.34 2.68 -0.68 1.36 0 0 Z " fill="#D8D8D8" transform="translate(374,170)"/>
</svg>